<?xml version="1.0" standalone="no"?>
<!DOCTYPE svg PUBLIC "-//W3C//DTD SVG 20010904//EN"
 "http://www.w3.org/TR/2001/REC-SVG-20010904/DTD/svg10.dtd">
<svg version="1.0" xmlns="http://www.w3.org/2000/svg"
 width="695.000000pt" height="401.000000pt" viewBox="0 0 695.000000 401.000000"
 preserveAspectRatio="xMidYMid meet">

<g transform="translate(0.000000,401.000000) scale(0.100000,-0.100000)"
fill="#000000" stroke="none">
<path d="M1540 3384 c-466 -100 -827 -452 -951 -929 -21 -79 -24 -112 -24
-280 1 -162 4 -203 22 -277 108 -426 422 -767 829 -898 125 -40 188 -48 427
-55 l207 -5 0 575 0 575 113 0 114 0 111 -407 c61 -225 116 -421 123 -438 11
-29 12 -28 37 60 13 50 66 245 116 435 l91 345 118 3 117 3 0 -576 0 -575 140
0 140 0 0 568 c0 312 4 572 8 578 11 17 366 1 420 -19 126 -47 221 -169 263
-337 18 -74 19 -365 0 -440 -33 -137 -127 -271 -222 -318 l-39 -19 31 -7 c17
-3 132 -6 255 -6 l224 0 0 568 c0 312 4 572 8 578 5 7 63 9 192 4 225 -9 256
-18 345 -101 71 -67 115 -146 141 -255 24 -97 24 -353 1 -448 -36 -144 -115
-258 -217 -312 l-45 -24 805 0 805 1 -93 34 c-181 65 -319 178 -394 320 -48
93 -65 164 -83 347 -17 177 -31 232 -88 343 -48 94 -168 220 -260 274 -223
131 -508 131 -731 1 -38 -22 -71 -40 -75 -40 -4 0 -17 35 -30 78 -102 348
-352 615 -685 731 -322 113 -636 73 -971 -124 l-31 -18 -104 108 c-130 134
-235 213 -365 275 -202 96 -315 120 -558 119 -107 0 -197 -6 -237 -15z m-244
-245 c10 -16 -9 -30 -57 -40 -124 -28 -293 -152 -378 -278 -106 -156 -155
-307 -170 -521 -5 -83 -8 -95 -25 -98 -18 -4 -19 1 -13 109 22 398 240 719
557 820 66 21 77 22 86 8z m2322 -101 c3 -16 -8 -18 -116 -18 -191 0 -383 -45
-521 -122 -50 -28 -81 -31 -81 -8 0 5 35 27 78 49 176 88 317 121 507 118 115
-2 130 -4 133 -19z m2114 -1805 c33 -56 129 -152 173 -173 46 -22 56 -37 30
-46 -24 -9 -114 47 -161 101 -64 72 -97 122 -89 134 11 19 30 12 47 -16z"/>
<path d="M3430 1510 l0 -443 91 7 c105 8 150 26 198 82 67 76 96 182 96 354 0
172 -29 278 -96 354 -48 56 -93 74 -198 82 l-91 7 0 -443z"/>
<path d="M4370 1510 l0 -443 86 7 c136 10 196 47 245 150 43 90 52 151 47 320
-4 126 -8 160 -27 209 -52 132 -122 184 -264 194 l-87 6 0 -443z"/>
<path d="M2201 1381 l-1 -444 110 5 c61 3 114 8 117 12 6 5 -128 527 -202 786
l-24 85 0 -444z"/>
<path d="M2738 1490 c-132 -492 -142 -530 -135 -536 3 -4 58 -9 122 -12 l115
-5 -1 399 c0 219 -3 417 -7 439 -7 36 -16 7 -94 -285z"/>
</g>
</svg>
